<svg width="330" height="330" viewBox="0 0 330 330" fill="none" xmlns="http://www.w3.org/2000/svg">
<g clip-path="url(#clip0_2_2)">
<path d="M329.8 88.5C329.8 76.5 328.6 64.7 325.8 53.1C324.4 47.2 322.3 41.5 319.5 36.1C313 23.5 303.1 14.6 290.1 9.1C282.3 5.8 274.1 3.8 265.6 2.6C258.6 1.6 251.7 0.799999 244.7 0.799999C197.2 0.699999 149.7 0.700001 102.3 0.700001C91.3 0.700001 80.4 0.700001 69.5 1.9C59.8 3 50.2 4.9 41.1 8.6C29.4 13.4 19.9 20.8 13.2 31.6C8.4 39.4 5.50001 47.8 3.60001 56.7C1.40001 66.9 0.399994 77.1 0.399994 87.5C0.399994 138.1 0.399994 188.7 0.399994 239.3C0.399994 248.8 0.800003 258.3 2.3 267.7C3.6 275.4 5.4 283 8.5 290.3C15.7 307.4 28.5 318.4 45.9 324.2C51.4 326 57.1 327.3 62.9 328.2C68.3 329.1 73.8 329.9 79.3 329.9C107.9 330 136.6 330 165.2 330C190 330 214.9 330 239.7 330C249 330 258.3 329.6 267.6 328.1C275.7 326.8 283.5 324.8 291 321.5C305.4 315.2 315.7 304.7 321.8 290.2C324.9 282.9 326.8 275.3 328 267.5C329.2 259.6 329.9 251.7 329.9 243.7C329.8 192 329.8 140.2 329.8 88.5ZM95.8 137.3C97.7 134.3 99.9 131.6 102.4 129.1C103.7 127.7 103.9 127.7 105.1 129.3C112.4 138.6 119.1 148.2 125.6 158.1C134.7 172 142.9 186.4 150.1 201.3C150.9 202.9 151.6 204.4 152.3 206C152.5 206.5 153.3 207.1 152.7 207.7C152.2 208.1 151.6 207.6 151.1 207.3C147.6 205.5 144.1 203.7 140.6 201.9C129.9 196.2 119.4 190.3 109.5 183.3C105 180.1 100.7 176.8 96.8 172.8C92.1 168 89.6 162.2 89.6 154.3C89.5 148.5 92.3 142.8 95.8 137.3ZM148.4 186.3C143 177.6 137.9 168.7 133.4 159.4C130 152.3 126.9 145 125.4 137.2C123.6 128.1 125 119.6 131.5 112.6C134.8 109.1 138.9 106.8 143.6 105.7C145.6 105.2 147.6 104.8 149.6 104.4C152.1 103.9 152.7 104.3 153.8 106.6C157.2 113.9 159 121.7 160.2 129.6C161.9 140.8 162.6 152 162.5 163.9C162.6 172.3 162 181.2 161.5 190.2C161.3 193.9 160.9 197.5 160.5 201.1C160.5 201.3 160.5 201.5 160.4 201.7C160.3 202.1 160.3 202.8 159.8 202.9C159.2 203 159 202.4 158.8 202C155.3 196.8 151.8 191.6 148.4 186.3ZM168.1 160.6C168.3 148.5 169.1 136.4 171.4 124.4C172.6 118.1 174.3 111.9 177.2 106.1C177.7 105.1 178.3 104.3 179.7 104.4C186.6 105.2 193.2 106.7 198.3 111.8C203.4 116.9 206.4 123 205.8 129.8C206 137.8 203.6 144.7 200.9 151.4C196.4 162.6 190.3 173.1 184.1 183.5C180.4 189.6 176.6 195.6 172.5 201.5C172.1 202.1 171.7 203.2 170.9 203C170.1 202.8 170.3 201.7 170.3 201C169.9 196.2 169.4 191.3 169.2 186.5C168.5 177.8 167.9 169.2 168.1 160.6ZM178.5 205.8C185 191.8 192.4 178.4 200.6 165.3C208.2 153.1 216.4 141.2 225.3 129.8C227.1 127.4 227.2 127.4 229.1 129.6C234.2 135.2 238.5 141.4 240.4 148.8C241 151 241.6 153.2 241.4 155.5C241.1 163.3 237.7 169.7 231.9 174.8C221.5 184 209.6 190.9 197.6 197.7C191.8 201 185.8 204.1 179.9 207.1C179.4 207.4 178.8 208 178.3 207.5C177.5 207 178.2 206.4 178.5 205.8ZM77.8 174.5C78.1 173.2 78.6 173.1 79.7 173.7C92.7 180.8 105.6 187.9 118.4 195.3C127.8 200.7 137.1 206.2 146.2 212.2C146.5 212.4 146.8 212.6 147.1 212.8C147.5 213.2 148.4 213.3 148.2 214C148 214.8 147.1 214.5 146.5 214.5C143.2 214.5 139.8 214.5 136.5 214.5H126.9C120.9 214.5 114.8 214.5 108.8 214.5C93.2 214.4 80 203.3 77.2 187.9C76.4 183.4 76.7 179 77.8 174.5ZM92.1 292.7C87.4 292.6 88 293.1 88 288.6C88 286 88 283.3 88 280.7C88 279.4 87.5 278.8 86.2 278.8C82.1 278.8 78 278.8 73.9 278.8C72.5 278.8 72 279.5 72.1 280.8C72.1 284.1 72.1 287.5 72.1 290.8C72.1 292.1 71.6 292.6 70.3 292.6C65.2 292.5 66 293.2 66 288.4C66 279.6 66 270.8 66 262C66 259.6 66 259.6 68.3 259.6C72.7 259.6 72.1 259.1 72.1 263.4C72.1 266 72.1 268.6 72.1 271.2C72.1 272.6 72.5 273.3 74 273.3C78 273.2 82.1 273.3 86.1 273.3C87.5 273.3 88 272.7 88 271.3C88 268 88 264.7 88 261.4C88 260.1 88.5 259.6 89.8 259.6C94.9 259.7 94.1 259 94.1 263.8C94.1 267.9 94.1 272 94.1 276.1C94.1 280.9 94.1 285.7 94.1 290.5C94.2 292.1 93.7 292.7 92.1 292.7ZM93.9 222.4C93.1 221.1 93.3 220.8 94.8 220.8C95.7 220.8 96.6 220.8 97.6 220.8C97.6 220.8 97.6 220.8 97.6 220.7C107.5 220.4 117.4 220.1 127.4 219.7C133.6 219.4 139.9 219.1 146.2 219.1C146.7 219.1 147.3 218.9 147.5 219.5C147.7 220 147.1 220.2 146.8 220.4C139.6 225.4 132.3 230.2 124.6 234.3C115.6 239.1 107.9 236.7 101.4 231C98.2 228.6 95.8 225.7 93.9 222.4ZM132.8 271.1C132.7 274.2 132.8 277.4 132.7 280.5C132.6 286.3 129.3 291.1 123.7 292.3C118.3 293.4 112.7 293.8 108.3 289.2C106.1 286.9 104.9 284.1 104.9 281C104.8 274.5 104.9 267.9 104.8 261.4C104.8 260.1 105.3 259.6 106.6 259.6C111.7 259.7 110.9 259 110.9 263.8C111 268.9 111 274.1 110.9 279.2C110.8 285.7 116.9 288.9 122.5 286.4C126.1 284.8 126.7 281.5 126.8 278C126.9 272.4 126.9 266.8 126.8 261.2C126.8 260 127.1 259.5 128.3 259.6C129.4 259.7 130.5 259.6 131.5 259.6C132.5 259.6 132.8 260 132.7 261C132.8 264.4 132.8 267.8 132.8 271.1ZM170 292.4C169.5 292.4 168.9 292.4 168.4 292.4C165.3 292.3 165.5 293 164 289.4C162 284.6 162.9 285.3 157.9 285.3C154.8 285.3 151.6 285.3 148.5 285.3C147.2 285.3 146.4 285.8 145.9 287C145.4 288.4 144.7 289.8 144.1 291.2C143.9 291.7 143.7 292.4 143.2 292.4C141.4 292.5 139.7 292.6 137.9 292.4C137.1 292.3 137.7 291.6 137.8 291.2C139.6 287.2 141.3 283.2 143.1 279.2C145.7 273.2 148.4 267.3 151 261.3C151.5 260.1 152.2 259.7 153.5 259.6C156.3 259.3 157.7 260.2 158.9 263C162.8 272.4 167 281.6 171.1 290.9C171.6 292.1 171.3 292.5 170 292.4ZM218.5 261.2C216.1 268.1 213.7 275.1 211.3 282C210.3 284.9 209.3 287.7 208.3 290.6C207.9 291.9 207.2 292.4 205.8 292.4C201.7 292.3 202.5 292.9 201.2 289.1C199.2 283.4 197.1 277.7 195.4 271.9C195.3 271.5 195.1 271 194.6 271C193.9 271 193.8 271.6 193.6 272.1C191.5 278.1 189.4 284.1 187.4 290.2C186.9 291.8 186.1 292.3 184.5 292.3C181.4 292.2 181.4 292.3 180.4 289.4C177.2 280.2 173.9 271 170.7 261.8C170.6 261.5 170.5 261.2 170.4 260.9C169.9 259.8 170.4 259.6 171.4 259.6C172 259.6 172.7 259.6 173.3 259.6C173.7 259.6 174.2 259.7 174.6 259.6C176.2 259.3 176.8 260.2 177.2 261.6C179.2 268 181.2 274.4 183.2 280.7C183.3 281.2 183.5 281.7 184.1 281.7C184.7 281.7 184.8 281.2 185 280.7C187.2 274.1 189.3 267.6 191.5 261C191.8 260 192.3 259.6 193.3 259.6C196.9 259.4 196.9 259.4 198.1 262.7C200.1 268.6 202.1 274.6 204.1 280.5C204.3 281 204.2 281.7 205 281.7C205.7 281.7 205.7 281 205.9 280.5C208 274 210.1 267.6 212.1 261.1C212.4 260.1 213 259.6 214.1 259.6C215.2 259.7 216.3 259.6 217.3 259.6C218.7 259.6 218.9 260.1 218.5 261.2ZM207.9 235.2C199.4 231.1 191.7 225.6 183.9 220.4C183.6 220.2 183 220 183.3 219.4C183.5 219 184 219.1 184.3 219.1C185.3 219.1 186.2 219.1 187.2 219.1C187.2 219.1 187.2 219.1 187.2 219.2C197.6 219.5 208 219.8 218.4 220.2C224.1 220.4 229.7 220.8 235.4 220.8C237.5 220.8 237.6 221 236.5 222.7C233.2 227.8 229.3 232.3 223.7 235C218.5 237.6 213.3 237.8 207.9 235.2ZM248.4 292.4C241.5 292.3 234.6 292.3 227.7 292.4C226.3 292.4 225.8 292 225.8 290.5C225.9 285.6 225.8 280.8 225.8 275.9C225.8 271.1 225.8 266.4 225.8 261.6C225.8 260.1 226.2 259.5 227.8 259.5C234.5 259.6 241.2 259.6 247.9 259.5C249.3 259.5 249.8 259.9 249.8 261.4C249.7 265.6 250.1 265 246.1 265.1C242 265.1 238 265.1 233.9 265.1C232.3 265.1 231.7 265.7 231.8 267.2C231.9 268.2 231.8 269.3 231.8 270.3C231.8 272.5 232 272.6 234.1 272.6C236.9 272.6 239.7 272.6 242.5 272.6C243.8 272.6 244.5 272.9 244.2 274.4C244.1 274.9 244.2 275.5 244.2 276C244.3 278.1 244.3 278.1 242.3 278.1C239.5 278.1 236.7 278.2 233.9 278.1C232.4 278.1 231.9 278.7 231.9 280.1C232 281.7 231.9 283.2 231.9 284.8C231.9 286.9 232.2 287.2 234.2 287.2C238.8 287.2 243.4 287.2 248 287.2C250.3 287.2 250.4 287.2 250.4 289.5C250.4 289.8 250.4 290 250.4 290.3C250.6 291.9 250 292.5 248.4 292.4ZM253.5 188C251.1 200.2 244 208.5 232.2 212.8C227.9 214.4 223.4 214.4 218.9 214.5C213.2 214.6 207.6 214.5 201.9 214.5C195.9 214.5 189.9 214.5 183.9 214.5C183.3 214.5 182.5 214.8 182.3 214.1C182.1 213.4 182.9 213.2 183.4 212.9C192.2 207.2 201.1 201.7 210.2 196.5C222.1 189.6 234.1 182.9 246.2 176.3C247.8 175.4 249.5 174.6 251 173.7C252.1 173 252.6 173.3 252.9 174.5C254.1 178.9 254.3 183.5 253.5 188ZM264.9 264C265 272.7 264.9 281.5 264.9 290.2C264.9 292.2 264.8 292.3 262.8 292.3C259 292.3 259 292.3 259 288.6V276C259 270.9 259 265.9 259 260.8C259 260.1 259.2 259.7 260 259.7C260.1 259.7 260.2 259.7 260.3 259.7C265.9 259.7 264.9 259 264.9 264ZM159.3 278.2C159.8 279.3 159.5 280 158.2 280C156.9 280 155.6 280 154.3 280C153.1 280 151.8 280 150.6 280C149.4 280 149 279.4 149.5 278.3C150.8 275.2 152.2 272.1 153.5 268.9C153.7 268.5 153.9 268.1 154.4 268.1C154.9 268.1 155.1 268.5 155.3 268.9C156.6 272.1 158 275.2 159.3 278.2Z" fill="url(#paint0_linear_2_2)"/>
<path d="M148.3 214.1C148.1 214.9 147.2 214.6 146.6 214.6C143.3 214.6 139.9 214.6 136.6 214.6H127C121 214.6 114.9 214.6 108.9 214.6C93.3 214.5 80.1 203.4 77.3 188C76.5 183.4 76.8 179 77.9 174.5C78.2 173.2 78.7 173.1 79.8 173.7C92.8 180.8 105.7 187.9 118.5 195.3C127.9 200.7 137.2 206.2 146.3 212.2C146.6 212.4 146.9 212.6 147.2 212.8C147.6 213.3 148.5 213.4 148.3 214.1Z" fill="white"/>
<path d="M94.2 290.6C94.2 292.1 93.7 292.7 92.2 292.7C87.5 292.6 88.1 293.1 88.1 288.6C88.1 286 88.1 283.3 88.1 280.7C88.1 279.4 87.6 278.8 86.3 278.8C82.2 278.8 78.1 278.8 74 278.8C72.6 278.8 72.1 279.5 72.2 280.8C72.2 284.1 72.2 287.5 72.2 290.8C72.2 292.1 71.7 292.6 70.4 292.6C65.3 292.5 66.1 293.2 66.1 288.3C66.1 279.5 66.1 270.7 66.1 261.9C66.1 259.5 66.1 259.5 68.4 259.5C72.8 259.5 72.2 259 72.2 263.3C72.2 265.9 72.2 268.5 72.2 271.1C72.2 272.5 72.6 273.2 74.1 273.2C78.1 273.1 82.2 273.2 86.2 273.2C87.6 273.2 88.1 272.6 88.1 271.2C88.1 267.9 88.1 264.6 88.1 261.3C88.1 260 88.6 259.5 89.9 259.5C95 259.6 94.2 258.9 94.2 263.7C94.2 267.8 94.2 271.9 94.2 276C94.1 281 94.1 285.8 94.2 290.6Z" fill="white"/>
<path d="M152.7 207.6C152.2 208 151.6 207.5 151.1 207.2C147.6 205.4 144.1 203.6 140.6 201.8C129.9 196.1 119.4 190.1 109.5 183.2C105 180 100.7 176.6 96.8 172.7C92.1 167.9 89.6 162.1 89.6 154.2C89.5 148.6 92.4 142.9 95.9 137.3C97.8 134.3 100 131.6 102.5 129.1C103.8 127.7 104 127.7 105.2 129.3C112.5 138.6 119.2 148.2 125.7 158.1C134.8 172 143 186.4 150.2 201.3C151 202.9 151.7 204.4 152.4 206C152.5 206.5 153.3 207.1 152.7 207.6Z" fill="white"/>
<path d="M132.8 271.1C132.7 274.2 132.8 277.4 132.7 280.5C132.6 286.3 129.3 291.1 123.7 292.3C118.3 293.4 112.7 293.8 108.3 289.2C106.1 286.9 104.9 284.1 104.9 281C104.8 274.5 104.9 267.9 104.8 261.4C104.8 260.1 105.3 259.6 106.6 259.6C111.7 259.7 110.9 259 110.9 263.8C111 268.9 111 274.1 110.9 279.2C110.8 285.7 116.9 288.9 122.5 286.4C126.1 284.8 126.7 281.5 126.8 278C126.9 272.4 126.9 266.8 126.8 261.2C126.8 260 127.1 259.5 128.3 259.6C129.4 259.7 130.5 259.6 131.5 259.6C132.5 259.6 132.8 260 132.7 261C132.8 264.4 132.8 267.8 132.8 271.1Z" fill="white"/>
<path d="M205.7 129.8C205.9 137.8 203.5 144.7 200.8 151.4C196.3 162.6 190.2 173.1 184 183.5C180.3 189.6 176.5 195.6 172.4 201.5C172 202.1 171.6 203.2 170.8 203C170 202.8 170.2 201.7 170.2 201C169.8 196.2 169.3 191.3 169.1 186.5C168.6 177.9 168 169.3 168.2 160.6C168.4 148.5 169.2 136.3 171.5 124.4C172.7 118.1 174.4 111.9 177.3 106.1C177.8 105.1 178.4 104.3 179.8 104.4C186.7 105.2 193.3 106.7 198.4 111.8C203.3 116.9 206.3 123 205.7 129.8Z" fill="white"/>
<path d="M241.3 155.6C241 163.4 237.6 169.8 231.8 174.9C221.4 184.1 209.5 191 197.5 197.8C191.7 201.1 185.7 204.2 179.8 207.2C179.3 207.5 178.7 208.1 178.2 207.6C177.5 207 178.2 206.4 178.5 205.9C185 191.9 192.4 178.5 200.6 165.4C208.2 153.2 216.4 141.3 225.3 129.9C227.1 127.5 227.2 127.5 229.1 129.7C234.2 135.3 238.5 141.5 240.4 148.9C240.9 151.1 241.5 153.3 241.3 155.6Z" fill="white"/>
<path d="M161.5 190.3C161.3 194 160.9 197.6 160.5 201.2C160.5 201.4 160.5 201.6 160.4 201.8C160.3 202.2 160.3 202.9 159.8 203C159.2 203.1 159 202.5 158.8 202.1C155.3 196.8 151.8 191.6 148.5 186.2C143.1 177.5 138 168.6 133.5 159.3C130.1 152.2 127 144.9 125.5 137.1C123.7 128 125.1 119.5 131.6 112.5C134.9 109 139 106.7 143.7 105.6C145.7 105.1 147.7 104.7 149.7 104.3C152.2 103.8 152.8 104.2 153.9 106.5C157.3 113.8 159.1 121.6 160.3 129.5C162 140.7 162.7 151.9 162.6 163.8C162.6 172.4 162 181.3 161.5 190.3Z" fill="white"/>
<path d="M146.6 220.5C139.4 225.5 132.1 230.3 124.4 234.4C115.4 239.2 107.7 236.8 101.2 231.1C98.3 228.6 95.9 225.7 94 222.4C93.2 221.1 93.4 220.8 94.9 220.8C95.8 220.8 96.7 220.8 97.7 220.8C97.7 220.8 97.7 220.8 97.7 220.7C107.6 220.4 117.5 220.1 127.5 219.7C133.8 219.4 140 219.1 146.3 219.1C146.8 219.1 147.4 218.9 147.6 219.5C147.5 220 146.9 220.3 146.6 220.5Z" fill="white"/>
<path d="M253.5 188C251.1 200.2 244 208.5 232.2 212.8C227.9 214.4 223.4 214.4 218.9 214.5C213.2 214.6 207.6 214.5 201.9 214.5C195.9 214.5 189.9 214.5 183.9 214.5C183.3 214.5 182.5 214.8 182.3 214.1C182.1 213.4 182.9 213.2 183.4 212.9C192.2 207.2 201.1 201.7 210.2 196.5C222.1 189.6 234.1 182.9 246.2 176.3C247.8 175.4 249.5 174.6 251 173.7C252.1 173 252.6 173.3 252.9 174.5C254.1 178.9 254.3 183.5 253.5 188Z" fill="white"/>
<path d="M248.4 292.4C241.5 292.3 234.6 292.3 227.7 292.4C226.3 292.4 225.8 292 225.8 290.5C225.9 285.6 225.8 280.8 225.8 275.9C225.8 271.1 225.8 266.4 225.8 261.6C225.8 260.1 226.2 259.5 227.8 259.5C234.5 259.6 241.2 259.6 247.9 259.5C249.3 259.5 249.8 259.9 249.8 261.4C249.7 265.6 250.1 265 246.1 265.1C242 265.1 238 265.1 233.9 265.1C232.3 265.1 231.7 265.7 231.8 267.2C231.9 268.2 231.8 269.3 231.8 270.3C231.8 272.5 232 272.6 234.1 272.6C236.9 272.6 239.7 272.6 242.5 272.6C243.8 272.6 244.5 272.9 244.2 274.4C244.1 274.9 244.2 275.5 244.2 276C244.3 278.1 244.3 278.1 242.3 278.1C239.5 278.1 236.7 278.2 233.9 278.1C232.4 278.1 231.9 278.7 231.9 280.1C232 281.7 231.9 283.2 231.9 284.8C231.9 286.9 232.2 287.2 234.2 287.2C238.8 287.2 243.4 287.2 248 287.2C250.3 287.2 250.4 287.2 250.4 289.5C250.4 289.8 250.4 290 250.4 290.3C250.6 291.9 250 292.5 248.4 292.4Z" fill="white"/>
<path d="M264.9 264.1C265 272.8 264.9 281.6 264.9 290.3C264.9 292.3 264.8 292.4 262.8 292.4C259 292.4 259 292.4 259 288.7V276C259 270.9 259 265.9 259 260.8C259 260.1 259.2 259.7 260 259.7C260.1 259.7 260.2 259.7 260.3 259.7C265.9 259.7 264.9 259 264.9 264.1Z" fill="white"/>
<path d="M236.6 222.7C233.3 227.8 229.4 232.3 223.8 235C218.5 237.6 213.3 237.8 207.9 235.2C199.4 231.1 191.7 225.6 183.9 220.4C183.6 220.2 183 220 183.3 219.4C183.5 219 184 219.1 184.3 219.1C185.3 219.1 186.2 219.1 187.2 219.1C187.2 219.1 187.2 219.1 187.2 219.2C197.6 219.5 208 219.8 218.4 220.2C224.1 220.4 229.7 220.8 235.4 220.8C237.5 220.8 237.7 221 236.6 222.7Z" fill="white"/>
<path d="M171 290.8C166.9 281.5 162.7 272.3 158.8 262.9C157.7 260.1 156.2 259.2 153.4 259.5C152.1 259.6 151.4 260 150.9 261.2C148.3 267.2 145.7 273.2 143 279.1C141.2 283.1 139.4 287.1 137.7 291.1C137.5 291.5 137 292.2 137.8 292.3C139.6 292.4 141.3 292.4 143.1 292.3C143.6 292.3 143.8 291.6 144 291.1C144.6 289.7 145.2 288.3 145.8 286.9C146.3 285.7 147.1 285.2 148.4 285.2C151.5 285.2 154.7 285.2 157.8 285.2C162.8 285.3 161.9 284.5 163.9 289.3C165.4 292.9 165.2 292.2 168.3 292.3C168.8 292.3 169.4 292.3 169.9 292.3C171.3 292.5 171.6 292.1 171 290.8ZM158.2 280.1C156.9 280.1 155.6 280.1 154.3 280.1C153.1 280.1 151.8 280.1 150.6 280.1C149.4 280.1 149 279.5 149.5 278.4C150.8 275.3 152.2 272.2 153.5 269C153.7 268.6 153.9 268.2 154.4 268.2C154.9 268.2 155.1 268.6 155.3 269C156.6 272.1 158 275.1 159.3 278.2C159.8 279.4 159.5 280 158.2 280.1Z" fill="white"/>
<path d="M218.5 261.2C216.1 268.1 213.7 275.1 211.3 282C210.3 284.9 209.3 287.7 208.3 290.6C207.9 291.9 207.2 292.4 205.8 292.4C201.7 292.3 202.5 292.9 201.2 289.1C199.2 283.4 197.1 277.7 195.4 271.9C195.3 271.5 195.1 271 194.6 271C193.9 271 193.8 271.6 193.6 272.1C191.5 278.1 189.4 284.1 187.4 290.2C186.9 291.8 186.1 292.3 184.5 292.3C181.4 292.2 181.4 292.3 180.4 289.4C177.2 280.2 173.9 271 170.7 261.8C170.6 261.5 170.5 261.2 170.4 260.9C169.9 259.8 170.4 259.6 171.4 259.6C172 259.6 172.7 259.6 173.3 259.6C173.7 259.6 174.2 259.7 174.6 259.6C176.2 259.3 176.8 260.2 177.2 261.6C179.2 268 181.2 274.4 183.2 280.7C183.3 281.2 183.5 281.7 184.1 281.7C184.7 281.7 184.8 281.2 185 280.7C187.2 274.1 189.3 267.6 191.5 261C191.8 260 192.3 259.6 193.3 259.6C196.9 259.4 196.9 259.4 198.1 262.7C200.1 268.6 202.1 274.6 204.1 280.5C204.3 281 204.2 281.7 205 281.7C205.7 281.7 205.7 281 205.9 280.5C208 274 210.1 267.6 212.1 261.1C212.4 260.1 213 259.6 214.1 259.6C215.2 259.7 216.3 259.6 217.3 259.6C218.7 259.6 219 260.1 218.5 261.2Z" fill="white"/>
<path d="M246.7 40.9C245.1 43 243.4 45.1 241.8 47.2C229.3 62.9 213.3 73.6 194.3 79.7C180.3 84.1 166 85.2 151.4 83.3C136 81.3 122 75.8 109.1 67.2C102.8 63 97.1 58.2 92.1 52.6C89.1 49.3 86.2 45.9 83.7 42.2C83.4 41.7 83.2 41.1 82.6 40.9C81.4 38.8 80.1 36.8 78.9 34.7C77.6 32.5 78.2 30.3 80.2 29.1C82 28.1 84.1 28.7 85.4 30.8C86.6 32.7 87.7 34.7 89.1 36.4C91.4 40.4 94.4 43.8 97.6 47.2C109.7 60.3 124.4 69.2 141.7 73.7C152.7 76.6 163.9 77.3 175.2 76C197.6 73.4 216.4 63.6 231.8 47.2C234.7 44.2 237.2 40.9 239.6 37.5C239.8 37.2 240.2 36.9 240.2 36.4C241.6 34.7 242.7 32.8 243.9 30.9C244.6 29.7 245.5 28.8 246.9 28.7C248.4 28.5 249.7 29 250.5 30.3C251.4 31.6 251.5 32.9 250.7 34.3C249.3 36.5 248 38.7 246.7 40.9Z" fill="white"/>
<path d="M246.7 40.9C248 38.7 249.3 36.5 250.6 34.3C251.4 33 251.3 31.6 250.4 30.3C249.5 29 248.3 28.5 246.8 28.7C245.4 28.9 244.5 29.8 243.8 30.9C242.7 32.8 241.6 34.7 240.1 36.4C239.1 35.9 238.8 34.9 238.6 33.9C237.5 28.1 240.6 23.1 246.2 22.1C252.2 21 257.5 25.7 257.5 31.4C257.5 36.7 253.6 40.4 248.7 41.2C248 41.4 247.3 41 246.7 40.9Z" fill="#D4323E"/>
<path d="M89 36.4C87.6 34.7 86.5 32.7 85.3 30.8C84 28.7 81.9 28.1 80.1 29.1C78.1 30.3 77.5 32.4 78.8 34.7C80 36.8 81.2 38.8 82.5 40.9C76.9 41.6 72.6 37.9 71.6 32.7C70.8 28.4 74.9 22.7 79.2 22.2C84.7 21.5 88.3 23.7 90.3 28.7C91.3 31.1 90.6 35.2 89 36.4Z" fill="#D4323E"/>
</g>
<defs>
<linearGradient id="paint0_linear_2_2" x1="165.124" y1="330.062" x2="165.124" y2="0.681507" gradientUnits="userSpaceOnUse">
<stop offset="0.438" stop-color="#D4323E"/>
<stop offset="0.5709" stop-color="#E2455C"/>
</linearGradient>
<clipPath id="clip0_2_2">
<rect width="330" height="330" fill="white"/>
</clipPath>
</defs>
</svg>
