<svg width="88" height="88" viewBox="0 0 88 88" fill="none" xmlns="http://www.w3.org/2000/svg">
<g clip-path="url(#clip0_98_2)">
<path fill-rule="evenodd" clip-rule="evenodd" d="M42.24 88C22.3279 88 12.3718 88 6.18591 81.8141C1.43051e-06 75.6282 1.03374e-06 65.672 1.55851e-07 45.7598L6.61252e-10 42.2398C-8.77229e-07 22.3276 -1.43051e-06 12.3715 6.1859 6.18555C12.3718 1.43051e-06 22.3279 1.01614e-06 42.2399 1.53194e-07L45.76 6.44483e-10C65.6721 -8.62316e-07 75.6282 -1.43051e-06 81.8141 6.18554C88 12.3714 88 22.3276 88 42.2398V45.7598C88 65.672 88 75.6282 81.8141 81.8141C75.6282 88 65.6721 88 45.76 88H42.24Z" fill="#0077FF"/>
<path d="M50.8869 54.2311C48.516 53.6388 46.8535 51.5179 46.8535 49.0854V20.4275C46.8535 17.6646 49.4643 15.6383 52.1573 16.311L69.2113 20.5712C71.5823 21.1634 73.2448 23.2843 73.2448 25.7168V54.3747C73.2448 57.1376 70.634 59.164 67.941 58.4913L50.8869 54.2311Z" fill="white"/>
<path d="M18.7893 67.4269C16.4183 66.8346 14.7559 64.7137 14.7559 62.2812V33.6233C14.7559 30.8604 17.3666 28.8341 20.0596 29.5068L37.1137 33.767C39.4846 34.3592 41.1471 36.4801 41.1471 38.9126V67.5705C41.1471 70.3334 38.5363 72.3598 35.8433 71.687L18.7893 67.4269Z" fill="white"/>
<path d="M34.8381 60.8292C32.4671 60.2369 30.8047 58.116 30.8047 55.6835V27.0257C30.8047 24.2628 33.4155 22.2364 36.1085 22.9091L53.1625 27.1693C55.5335 27.7616 57.1959 29.8825 57.1959 32.315V60.9728C57.1959 63.7358 54.5852 65.7621 51.8921 65.0894L34.8381 60.8292Z" fill="white"/>
<path d="M45.9999 63.625C45.2531 63.4348 44.7216 62.7744 44.6955 62.0042L43.9536 40.1183C43.739 37.2217 41.5888 34.918 39.3419 34.2396C39.2157 34.2015 39.081 34.2528 39.0063 34.3613C38.9304 34.4716 38.9597 34.6243 39.0656 34.7063C39.6205 35.1358 41.1476 36.5375 41.1476 38.9551L41.1431 62.3942L45.9999 63.625Z" fill="#2B71F6"/>
<path d="M62.0528 57.0208C61.3066 56.8341 60.7744 56.1757 60.7484 55.4069L60.0063 33.5226C59.7917 30.626 57.6416 28.3223 55.3946 27.6439C55.2685 27.6058 55.1338 27.6571 55.0591 27.7656C54.9831 27.8759 55.0125 28.0286 55.1184 28.1106C55.6732 28.5401 57.2004 29.9418 57.2004 32.3594L57.1959 55.8065L62.0528 57.0208Z" fill="#2B71F6"/>
</g>
<defs>
<clipPath id="clip0_98_2">
<rect width="88" height="88" fill="white"/>
</clipPath>
</defs>
</svg>
